<?xml version="1.0" standalone="no"?>
<!DOCTYPE svg PUBLIC "-//W3C//DTD SVG 20010904//EN"
 "http://www.w3.org/TR/2001/REC-SVG-20010904/DTD/svg10.dtd">
<svg version="1.0" xmlns="http://www.w3.org/2000/svg"
 width="520.000000pt" height="520.000000pt" viewBox="0 0 520.000000 520.000000"
 preserveAspectRatio="xMidYMid meet">
<metadata>
Created by potrace 1.14, written by Peter Selinger 2001-2017
</metadata>
<g transform="translate(0.000000,520.000000) scale(0.100000,-0.100000)"
fill="#000000" stroke="none">
<path d="M953 4619 c-168 -15 -301 -131 -332 -289 -14 -75 -14 -1295 0 -1369
27 -134 121 -236 257 -278 39 -12 156 -14 697 -14 358 0 666 2 685 5 127 22
251 139 287 271 10 35 10 1358 0 1395 -39 146 -164 261 -304 276 -70 8 -1205
10 -1290 3z"/>
<path d="M3070 4619 c-63 -3 -131 -12 -150 -19 -120 -45 -212 -153 -235 -275
-10 -55 -10 -1299 0 -1355 5 -25 9 -47 10 -50 0 -3 11 -26 23 -52 43 -87 134
-160 237 -188 28 -8 246 -10 720 -8 l680 3 59 29 c101 49 187 162 203 264 9
63 9 1294 -1 1352 -24 147 -161 281 -304 296 -71 7 -1110 10 -1242 3z"/>
<path d="M924 2561 c-2 -2 -16 -6 -30 -7 -41 -4 -129 -53 -173 -95 -22 -21
-55 -69 -73 -106 l-33 -68 0 -690 c1 -379 4 -699 7 -711 30 -101 106 -191 203
-239 l60 -30 683 -2 c671 -2 684 -2 740 19 124 45 199 126 240 258 9 29 8
1335 -1 1384 -22 123 -114 226 -243 271 -45 16 -108 18 -712 19 -365 1 -666
-1 -668 -3z"/>
<path d="M2946 2549 c-74 -23 -107 -42 -159 -94 -53 -52 -81 -102 -98 -172 -8
-33 -11 -251 -11 -704 -1 -603 1 -660 17 -710 34 -102 104 -181 205 -228 l55
-26 695 0 695 0 56 26 c66 31 131 88 166 143 56 88 56 87 57 791 1 684 0 709
-44 796 -37 72 -134 155 -205 174 -16 4 -37 10 -45 12 -8 3 -312 5 -674 6
-576 2 -666 0 -710 -14z"/>
<path d="M4785 40 c-3 -6 1 -7 9 -4 18 7 21 14 7 14 -6 0 -13 -4 -16 -10z"/>
</g>
</svg>
